#define bullet_width 14
#define bullet_height 14
static unsigned char bullet_bits[] = {
   0x00, 0x00, 0x00, 0x00, 0x00, 0x00, 0x00, 0x00, 0x00, 0x03, 0x00, 0x06,
   0x00, 0x0c, 0x00, 0x0c, 0x00, 0x06, 0x00, 0x03, 0x80, 0x01, 0xc0, 0x00,
   0x00, 0x00, 0x00, 0x00 };
