#define close_width 15
#define close_height 15
static unsigned char close_bits[] = {
   0x00, 0x00, 0x02, 0x20, 0x04, 0x10, 0x08, 0x08, 0x10, 0x04, 0x20, 0x02,
   0x40, 0x01, 0x80, 0x00, 0x40, 0x01, 0x20, 0x02, 0x10, 0x04, 0x08, 0x08,
   0x04, 0x10, 0x02, 0x20, 0x00, 0x00 };
