#define max_width 15
#define max_height 15
static unsigned char max_bits[] = {
   0x00, 0x00, 0xe0, 0x03, 0x18, 0x0c, 0x04, 0x10, 0x04, 0x10, 0x02, 0x20,
   0x02, 0x20, 0x02, 0x20, 0x02, 0x20, 0x02, 0x20, 0x04, 0x10, 0x04, 0x10,
   0x18, 0x0c, 0xe0, 0x03, 0x00, 0x00 };
